<?xml version="1.0" encoding="utf-8" standalone="no"?>
<!DOCTYPE svg PUBLIC "-//W3C//DTD SVG 1.1//EN"
  "http://www.w3.org/Graphics/SVG/1.1/DTD/svg11.dtd">
<!-- Created with matplotlib (http://matplotlib.org/) -->
<svg height="396pt" version="1.1" viewBox="0 0 576 396" width="576pt" xmlns="http://www.w3.org/2000/svg" xmlns:xlink="http://www.w3.org/1999/xlink">
 <defs>
  <style type="text/css">
*{stroke-linecap:butt;stroke-linejoin:round;stroke-miterlimit:100000;}
  </style>
 </defs>
 <g id="figure_1">
  <g id="patch_1">
   <path d="M 0 396 
L 576 396 
L 576 0 
L 0 0 
L 0 396 
z
" style="fill:none;opacity:0;"/>
  </g>
  <g id="axes_1">
   <g id="patch_2">
    <path d="M 84.436284 330.249375 
L 551.565 330.249375 
L 551.565 48.299 
L 84.436284 48.299 
z
" style="fill:#ffffff;"/>
   </g>
   <g id="matplotlib.axis_1">
    <g id="xtick_1">
     <g id="line2d_1">
      <defs>
       <path d="M 0 0 
L 0 6 
" id="m9d1528d5ff" style="stroke:#262626;"/>
      </defs>
      <g>
       <use style="fill:#262626;stroke:#262626;" x="84.436284375" xlink:href="#m9d1528d5ff" y="330.249375"/>
      </g>
     </g>
     <g id="line2d_2">
      <defs>
       <path d="M 0 0 
L 0 -6 
" id="md826244a03" style="stroke:#262626;"/>
      </defs>
      <g>
       <use style="fill:#262626;stroke:#262626;" x="84.436284375" xlink:href="#md826244a03" y="48.299"/>
      </g>
     </g>
     <g id="text_1">
      <!-- −20 -->
      <defs>
       <path d="M 31.78125 3.421875 
Q 39.265625 3.421875 42.96875 11.625 
Q 46.6875 19.828125 46.6875 36.375 
Q 46.6875 52.984375 42.96875 61.1875 
Q 39.265625 69.390625 31.78125 69.390625 
Q 24.3125 69.390625 20.59375 61.1875 
Q 16.890625 52.984375 16.890625 36.375 
Q 16.890625 19.828125 20.59375 11.625 
Q 24.3125 3.421875 31.78125 3.421875 
M 31.78125 -1.421875 
Q 19.921875 -1.421875 13.25 8.53125 
Q 6.59375 18.5 6.59375 36.375 
Q 6.59375 54.296875 13.25 64.25 
Q 19.921875 74.21875 31.78125 74.21875 
Q 43.703125 74.21875 50.34375 64.25 
Q 56.984375 54.296875 56.984375 36.375 
Q 56.984375 18.5 50.34375 8.53125 
Q 43.703125 -1.421875 31.78125 -1.421875 
" id="DejaVuSerif-30"/>
       <path d="M 12.796875 55.515625 
L 7.328125 55.515625 
L 7.328125 68.5 
Q 12.546875 71.296875 17.84375 72.75 
Q 23.140625 74.21875 28.21875 74.21875 
Q 39.59375 74.21875 46.1875 68.703125 
Q 52.78125 63.1875 52.78125 53.71875 
Q 52.78125 43.015625 37.84375 28.125 
Q 36.671875 27 36.078125 26.421875 
L 17.671875 8.015625 
L 48.09375 8.015625 
L 48.09375 17 
L 53.8125 17 
L 53.8125 0 
L 6.78125 0 
L 6.78125 5.328125 
L 28.90625 27.390625 
Q 36.234375 34.71875 39.359375 40.84375 
Q 42.484375 46.96875 42.484375 53.71875 
Q 42.484375 61.078125 38.640625 65.234375 
Q 34.8125 69.390625 28.078125 69.390625 
Q 21.09375 69.390625 17.28125 65.921875 
Q 13.484375 62.453125 12.796875 55.515625 
" id="DejaVuSerif-32"/>
       <path d="M 10.59375 35.296875 
L 73.1875 35.296875 
L 73.1875 27.390625 
L 10.59375 27.390625 
z
" id="DejaVuSerif-2212"/>
      </defs>
      <g style="fill:#262626;" transform="translate(65.442065625 356.9265625)scale(0.18 -0.18)">
       <use xlink:href="#DejaVuSerif-2212"/>
       <use x="83.7890625" xlink:href="#DejaVuSerif-32"/>
       <use x="147.412109375" xlink:href="#DejaVuSerif-30"/>
      </g>
     </g>
    </g>
    <g id="xtick_2">
     <g id="line2d_3">
      <g>
       <use style="fill:#262626;stroke:#262626;" x="151.168958036" xlink:href="#m9d1528d5ff" y="330.249375"/>
      </g>
     </g>
     <g id="line2d_4">
      <g>
       <use style="fill:#262626;stroke:#262626;" x="151.168958036" xlink:href="#md826244a03" y="48.299"/>
      </g>
     </g>
     <g id="text_2">
      <!-- −15 -->
      <defs>
       <path d="M 14.203125 0 
L 14.203125 5.171875 
L 26.90625 5.171875 
L 26.90625 65.828125 
L 12.203125 56.296875 
L 12.203125 62.703125 
L 29.984375 74.21875 
L 36.71875 74.21875 
L 36.71875 5.171875 
L 49.421875 5.171875 
L 49.421875 0 
z
" id="DejaVuSerif-31"/>
       <path d="M 50.296875 72.90625 
L 50.296875 64.890625 
L 16.890625 64.890625 
L 16.890625 44 
Q 19.4375 45.75 22.828125 46.625 
Q 26.21875 47.515625 30.421875 47.515625 
Q 42.234375 47.515625 49.0625 40.96875 
Q 55.90625 34.421875 55.90625 23.09375 
Q 55.90625 11.53125 49 5.046875 
Q 42.09375 -1.421875 29.59375 -1.421875 
Q 24.5625 -1.421875 19.28125 -0.1875 
Q 14.015625 1.03125 8.5 3.515625 
L 8.5 17.671875 
L 14.015625 17.671875 
Q 14.453125 10.75 18.421875 7.078125 
Q 22.40625 3.421875 29.59375 3.421875 
Q 37.3125 3.421875 41.453125 8.5 
Q 45.609375 13.578125 45.609375 23.09375 
Q 45.609375 32.5625 41.484375 37.609375 
Q 37.359375 42.671875 29.59375 42.671875 
Q 25.203125 42.671875 21.84375 41.109375 
Q 18.5 39.546875 15.921875 36.28125 
L 11.71875 36.28125 
L 11.71875 72.90625 
z
" id="DejaVuSerif-35"/>
      </defs>
      <g style="fill:#262626;" transform="translate(132.174739286 356.9265625)scale(0.18 -0.18)">
       <use xlink:href="#DejaVuSerif-2212"/>
       <use x="83.7890625" xlink:href="#DejaVuSerif-31"/>
       <use x="147.412109375" xlink:href="#DejaVuSerif-35"/>
      </g>
     </g>
    </g>
    <g id="xtick_3">
     <g id="line2d_5">
      <g>
       <use style="fill:#262626;stroke:#262626;" x="217.901631696" xlink:href="#m9d1528d5ff" y="330.249375"/>
      </g>
     </g>
     <g id="line2d_6">
      <g>
       <use style="fill:#262626;stroke:#262626;" x="217.901631696" xlink:href="#md826244a03" y="48.299"/>
      </g>
     </g>
     <g id="text_3">
      <!-- −10 -->
      <g style="fill:#262626;" transform="translate(198.907412946 356.9265625)scale(0.18 -0.18)">
       <use xlink:href="#DejaVuSerif-2212"/>
       <use x="83.7890625" xlink:href="#DejaVuSerif-31"/>
       <use x="147.412109375" xlink:href="#DejaVuSerif-30"/>
      </g>
     </g>
    </g>
    <g id="xtick_4">
     <g id="line2d_7">
      <g>
       <use style="fill:#262626;stroke:#262626;" x="284.634305357" xlink:href="#m9d1528d5ff" y="330.249375"/>
      </g>
     </g>
     <g id="line2d_8">
      <g>
       <use style="fill:#262626;stroke:#262626;" x="284.634305357" xlink:href="#md826244a03" y="48.299"/>
      </g>
     </g>
     <g id="text_4">
      <!-- −5 -->
      <g style="fill:#262626;" transform="translate(271.366336607 356.9265625)scale(0.18 -0.18)">
       <use xlink:href="#DejaVuSerif-2212"/>
       <use x="83.7890625" xlink:href="#DejaVuSerif-35"/>
      </g>
     </g>
    </g>
    <g id="xtick_5">
     <g id="line2d_9">
      <g>
       <use style="fill:#262626;stroke:#262626;" x="351.366979018" xlink:href="#m9d1528d5ff" y="330.249375"/>
      </g>
     </g>
     <g id="line2d_10">
      <g>
       <use style="fill:#262626;stroke:#262626;" x="351.366979018" xlink:href="#md826244a03" y="48.299"/>
      </g>
     </g>
     <g id="text_5">
      <!-- 0 -->
      <g style="fill:#262626;" transform="translate(345.640729018 356.9265625)scale(0.18 -0.18)">
       <use xlink:href="#DejaVuSerif-30"/>
      </g>
     </g>
    </g>
    <g id="xtick_6">
     <g id="line2d_11">
      <g>
       <use style="fill:#262626;stroke:#262626;" x="418.099652679" xlink:href="#m9d1528d5ff" y="330.249375"/>
      </g>
     </g>
     <g id="line2d_12">
      <g>
       <use style="fill:#262626;stroke:#262626;" x="418.099652679" xlink:href="#md826244a03" y="48.299"/>
      </g>
     </g>
     <g id="text_6">
      <!-- 5 -->
      <g style="fill:#262626;" transform="translate(412.373402679 356.9265625)scale(0.18 -0.18)">
       <use xlink:href="#DejaVuSerif-35"/>
      </g>
     </g>
    </g>
    <g id="xtick_7">
     <g id="line2d_13">
      <g>
       <use style="fill:#262626;stroke:#262626;" x="484.832326339" xlink:href="#m9d1528d5ff" y="330.249375"/>
      </g>
     </g>
     <g id="line2d_14">
      <g>
       <use style="fill:#262626;stroke:#262626;" x="484.832326339" xlink:href="#md826244a03" y="48.299"/>
      </g>
     </g>
     <g id="text_7">
      <!-- 10 -->
      <g style="fill:#262626;" transform="translate(473.379826339 356.9265625)scale(0.18 -0.18)">
       <use xlink:href="#DejaVuSerif-31"/>
       <use x="63.623046875" xlink:href="#DejaVuSerif-30"/>
      </g>
     </g>
    </g>
    <g id="xtick_8">
     <g id="line2d_15">
      <g>
       <use style="fill:#262626;stroke:#262626;" x="551.565" xlink:href="#m9d1528d5ff" y="330.249375"/>
      </g>
     </g>
     <g id="line2d_16">
      <g>
       <use style="fill:#262626;stroke:#262626;" x="551.565" xlink:href="#md826244a03" y="48.299"/>
      </g>
     </g>
     <g id="text_8">
      <!-- 15 -->
      <g style="fill:#262626;" transform="translate(540.1125 356.9265625)scale(0.18 -0.18)">
       <use xlink:href="#DejaVuSerif-31"/>
       <use x="63.623046875" xlink:href="#DejaVuSerif-35"/>
      </g>
     </g>
    </g>
    <g id="text_9">
     <!-- Delay (fs) -->
     <defs>
      <path d="M 20.515625 5.171875 
L 29 5.171875 
L 29 0 
L 2.875 0 
L 2.875 5.171875 
L 11.53125 5.171875 
L 11.53125 70.796875 
L 2.875 70.796875 
L 2.875 75.984375 
L 20.515625 75.984375 
z
" id="DejaVuSerif-6c"/>
      <path d="M 43.015625 63.71875 
L 38.28125 63.71875 
Q 38.234375 67.390625 36.203125 69.28125 
Q 34.1875 71.1875 30.328125 71.1875 
Q 25.296875 71.1875 23.234375 68.421875 
Q 21.1875 65.671875 21.1875 58.59375 
L 21.1875 51.90625 
L 35.6875 51.90625 
L 35.6875 46.6875 
L 21.1875 46.6875 
L 21.1875 5.171875 
L 32.71875 5.171875 
L 32.71875 0 
L 3.609375 0 
L 3.609375 5.171875 
L 12.203125 5.171875 
L 12.203125 46.6875 
L 3.609375 46.6875 
L 3.609375 51.90625 
L 12.203125 51.90625 
L 12.203125 58.40625 
Q 12.203125 67.09375 16.71875 71.53125 
Q 21.234375 75.984375 29.984375 75.984375 
Q 33.25 75.984375 36.515625 75.390625 
Q 39.796875 74.8125 43.015625 73.578125 
z
" id="DejaVuSerif-66"/>
      <path d="M 54.203125 25 
L 15.484375 25 
L 15.484375 24.609375 
Q 15.484375 14.109375 19.4375 8.765625 
Q 23.390625 3.421875 31.109375 3.421875 
Q 37.015625 3.421875 40.796875 6.515625 
Q 44.578125 9.625 46.09375 15.71875 
L 53.328125 15.71875 
Q 51.171875 7.171875 45.375 2.875 
Q 39.59375 -1.421875 30.171875 -1.421875 
Q 18.796875 -1.421875 11.890625 6.078125 
Q 4.984375 13.578125 4.984375 25.984375 
Q 4.984375 38.28125 11.765625 45.796875 
Q 18.5625 53.328125 29.59375 53.328125 
Q 41.359375 53.328125 47.65625 46.0625 
Q 53.953125 38.8125 54.203125 25 
M 43.609375 30.171875 
Q 43.3125 39.265625 39.765625 43.875 
Q 36.234375 48.484375 29.59375 48.484375 
Q 23.390625 48.484375 19.828125 43.84375 
Q 16.265625 39.203125 15.484375 30.171875 
z
" id="DejaVuSerif-65"/>
      <path d="M 5.609375 2.875 
L 5.609375 14.984375 
L 10.796875 14.984375 
Q 10.984375 9.1875 14.421875 6.296875 
Q 17.875 3.421875 24.609375 3.421875 
Q 30.671875 3.421875 33.84375 5.6875 
Q 37.015625 7.953125 37.015625 12.3125 
Q 37.015625 15.71875 34.6875 17.8125 
Q 32.375 19.921875 24.90625 22.3125 
L 18.40625 24.515625 
Q 11.71875 26.65625 8.71875 29.875 
Q 5.71875 33.109375 5.71875 38.09375 
Q 5.71875 45.21875 10.9375 49.265625 
Q 16.15625 53.328125 25.390625 53.328125 
Q 29.5 53.328125 34.03125 52.25 
Q 38.578125 51.171875 43.40625 49.125 
L 43.40625 37.796875 
L 38.234375 37.796875 
Q 38.03125 42.828125 34.703125 45.65625 
Q 31.390625 48.484375 25.6875 48.484375 
Q 20.015625 48.484375 17.109375 46.484375 
Q 14.203125 44.484375 14.203125 40.484375 
Q 14.203125 37.203125 16.40625 35.21875 
Q 18.609375 33.25 25.203125 31.203125 
L 32.328125 29 
Q 39.703125 26.703125 42.9375 23.265625 
Q 46.1875 19.828125 46.1875 14.40625 
Q 46.1875 7.03125 40.546875 2.796875 
Q 34.90625 -1.421875 25 -1.421875 
Q 19.96875 -1.421875 15.1875 -0.34375 
Q 10.40625 0.734375 5.609375 2.875 
" id="DejaVuSerif-73"/>
      <path d="M 21.578125 -9.515625 
L 25 -0.875 
L 5.609375 46.6875 
L -0.296875 46.6875 
L -0.296875 51.90625 
L 23.578125 51.90625 
L 23.578125 46.6875 
L 15.28125 46.6875 
L 29.890625 10.984375 
L 44.484375 46.6875 
L 36.71875 46.6875 
L 36.71875 51.90625 
L 56.203125 51.90625 
L 56.203125 46.6875 
L 50.390625 46.6875 
L 26.609375 -11.71875 
Q 24.171875 -17.78125 21.1875 -20 
Q 18.21875 -22.21875 12.796875 -22.21875 
Q 10.5 -22.21875 8.078125 -21.828125 
Q 5.671875 -21.4375 3.21875 -20.703125 
L 3.21875 -10.796875 
L 7.8125 -10.796875 
Q 8.109375 -14.109375 9.5 -15.546875 
Q 10.890625 -17 13.8125 -17 
Q 16.5 -17 18.140625 -15.5 
Q 19.78125 -14.015625 21.578125 -9.515625 
" id="DejaVuSerif-79"/>
      <path id="DejaVuSerif-20"/>
      <path d="M 31.890625 -15.578125 
Q 20.015625 -10.25 13.953125 1.296875 
Q 7.90625 12.84375 7.90625 30.171875 
Q 7.90625 47.5625 13.953125 59.109375 
Q 20.015625 70.65625 31.890625 75.984375 
L 31.890625 71.1875 
Q 24.359375 66.015625 21.09375 56.609375 
Q 17.828125 47.21875 17.828125 30.171875 
Q 17.828125 13.1875 21.09375 3.78125 
Q 24.359375 -5.609375 31.890625 -10.796875 
z
" id="DejaVuSerif-28"/>
      <path d="M 7.078125 -15.578125 
L 7.078125 -10.796875 
Q 14.59375 -5.609375 17.890625 3.78125 
Q 21.1875 13.1875 21.1875 30.171875 
Q 21.1875 47.21875 17.890625 56.609375 
Q 14.59375 66.015625 7.078125 71.1875 
L 7.078125 75.984375 
Q 19 70.65625 25.046875 59.109375 
Q 31.109375 47.5625 31.109375 30.171875 
Q 31.109375 12.84375 25.046875 1.296875 
Q 19 -10.25 7.078125 -15.578125 
" id="DejaVuSerif-29"/>
      <path d="M 39.796875 16.3125 
L 39.796875 27.296875 
L 28.21875 27.296875 
Q 21.53125 27.296875 18.25 24.40625 
Q 14.984375 21.53125 14.984375 15.578125 
Q 14.984375 10.15625 18.296875 6.984375 
Q 21.625 3.8125 27.296875 3.8125 
Q 32.90625 3.8125 36.34375 7.28125 
Q 39.796875 10.75 39.796875 16.3125 
M 48.78125 32.421875 
L 48.78125 5.171875 
L 56.78125 5.171875 
L 56.78125 0 
L 39.796875 0 
L 39.796875 5.609375 
Q 36.8125 2 32.90625 0.28125 
Q 29 -1.421875 23.78125 -1.421875 
Q 15.140625 -1.421875 10.0625 3.171875 
Q 4.984375 7.765625 4.984375 15.578125 
Q 4.984375 23.640625 10.796875 28.078125 
Q 16.609375 32.515625 27.203125 32.515625 
L 39.796875 32.515625 
L 39.796875 36.078125 
Q 39.796875 42 36.203125 45.234375 
Q 32.625 48.484375 26.125 48.484375 
Q 20.75 48.484375 17.578125 46.046875 
Q 14.40625 43.609375 13.625 38.8125 
L 8.984375 38.8125 
L 8.984375 49.3125 
Q 13.671875 51.3125 18.09375 52.3125 
Q 22.515625 53.328125 26.703125 53.328125 
Q 37.5 53.328125 43.140625 47.96875 
Q 48.78125 42.625 48.78125 32.421875 
" id="DejaVuSerif-61"/>
      <path d="M 24.703125 5.171875 
L 33.796875 5.171875 
Q 48 5.171875 55.59375 13.28125 
Q 63.1875 21.390625 63.1875 36.53125 
Q 63.1875 51.65625 55.609375 59.65625 
Q 48.046875 67.671875 33.796875 67.671875 
L 24.703125 67.671875 
z
M 5.515625 0 
L 5.515625 5.171875 
L 14.796875 5.171875 
L 14.796875 67.671875 
L 5.515625 67.671875 
L 5.515625 72.90625 
L 34.515625 72.90625 
Q 53.375 72.90625 63.890625 63.28125 
Q 74.421875 53.65625 74.421875 36.53125 
Q 74.421875 19.34375 63.875 9.671875 
Q 53.328125 0 34.515625 0 
z
" id="DejaVuSerif-44"/>
     </defs>
     <g style="fill:#262626;" transform="translate(274.295798438 379.3471875)scale(0.18 -0.18)">
      <use xlink:href="#DejaVuSerif-44"/>
      <use x="80.17578125" xlink:href="#DejaVuSerif-65"/>
      <use x="139.35546875" xlink:href="#DejaVuSerif-6c"/>
      <use x="171.337890625" xlink:href="#DejaVuSerif-61"/>
      <use x="230.95703125" xlink:href="#DejaVuSerif-79"/>
      <use x="287.451171875" xlink:href="#DejaVuSerif-20"/>
      <use x="319.23828125" xlink:href="#DejaVuSerif-28"/>
      <use x="358.251953125" xlink:href="#DejaVuSerif-66"/>
      <use x="395.263671875" xlink:href="#DejaVuSerif-73"/>
      <use x="446.58203125" xlink:href="#DejaVuSerif-29"/>
     </g>
    </g>
   </g>
   <g id="matplotlib.axis_2">
    <g id="ytick_1">
     <g id="line2d_17">
      <defs>
       <path d="M 0 0 
L -6 0 
" id="mf171ea7b0a" style="stroke:#262626;"/>
      </defs>
      <g>
       <use style="fill:#262626;stroke:#262626;" x="84.436284375" xlink:href="#mf171ea7b0a" y="330.249375"/>
      </g>
     </g>
     <g id="line2d_18">
      <defs>
       <path d="M 0 0 
L 6 0 
" id="mf3b3d9fa76" style="stroke:#262626;"/>
      </defs>
      <g>
       <use style="fill:#262626;stroke:#262626;" x="551.565" xlink:href="#mf3b3d9fa76" y="330.249375"/>
      </g>
     </g>
     <g id="text_10">
      <!-- −5 -->
      <g style="fill:#262626;" transform="translate(44.900346875 335.21625)scale(0.18 -0.18)">
       <use xlink:href="#DejaVuSerif-2212"/>
       <use x="83.7890625" xlink:href="#DejaVuSerif-35"/>
      </g>
     </g>
    </g>
    <g id="ytick_2">
     <g id="line2d_19">
      <g>
       <use style="fill:#262626;stroke:#262626;" x="84.436284375" xlink:href="#mf171ea7b0a" y="295.005578125"/>
      </g>
     </g>
     <g id="line2d_20">
      <g>
       <use style="fill:#262626;stroke:#262626;" x="551.565" xlink:href="#mf3b3d9fa76" y="295.005578125"/>
      </g>
     </g>
     <g id="text_11">
      <!-- −4 -->
      <defs>
       <path d="M 34.90625 24.703125 
L 34.90625 63.484375 
L 10.015625 24.703125 
z
M 56.390625 0 
L 23.1875 0 
L 23.1875 5.171875 
L 34.90625 5.171875 
L 34.90625 19.484375 
L 3.078125 19.484375 
L 3.078125 24.8125 
L 35.015625 74.21875 
L 44.671875 74.21875 
L 44.671875 24.703125 
L 58.59375 24.703125 
L 58.59375 19.484375 
L 44.671875 19.484375 
L 44.671875 5.171875 
L 56.390625 5.171875 
z
" id="DejaVuSerif-34"/>
      </defs>
      <g style="fill:#262626;" transform="translate(44.900346875 299.972453125)scale(0.18 -0.18)">
       <use xlink:href="#DejaVuSerif-2212"/>
       <use x="83.7890625" xlink:href="#DejaVuSerif-34"/>
      </g>
     </g>
    </g>
    <g id="ytick_3">
     <g id="line2d_21">
      <g>
       <use style="fill:#262626;stroke:#262626;" x="84.436284375" xlink:href="#mf171ea7b0a" y="259.76178125"/>
      </g>
     </g>
     <g id="line2d_22">
      <g>
       <use style="fill:#262626;stroke:#262626;" x="551.565" xlink:href="#mf3b3d9fa76" y="259.76178125"/>
      </g>
     </g>
     <g id="text_12">
      <!-- −3 -->
      <defs>
       <path d="M 9.71875 69.828125 
Q 15.4375 71.96875 20.671875 73.09375 
Q 25.921875 74.21875 30.515625 74.21875 
Q 41.21875 74.21875 47.21875 69.59375 
Q 53.21875 64.984375 53.21875 56.78125 
Q 53.21875 50.203125 49.0625 45.78125 
Q 44.921875 41.359375 37.3125 39.796875 
Q 46.296875 38.53125 51.25 33.28125 
Q 56.203125 28.03125 56.203125 19.671875 
Q 56.203125 9.46875 49.34375 4.015625 
Q 42.484375 -1.421875 29.59375 -1.421875 
Q 23.875 -1.421875 18.421875 -0.1875 
Q 12.984375 1.03125 7.625 3.515625 
L 7.625 17.671875 
L 13.09375 17.671875 
Q 13.578125 10.640625 17.828125 7.03125 
Q 22.078125 3.421875 29.78125 3.421875 
Q 37.25 3.421875 41.578125 7.734375 
Q 45.90625 12.0625 45.90625 19.578125 
Q 45.90625 28.171875 41.453125 32.59375 
Q 37.015625 37.015625 28.421875 37.015625 
L 23.78125 37.015625 
L 23.78125 42 
L 26.21875 42 
Q 34.765625 42 39.03125 45.53125 
Q 43.3125 49.078125 43.3125 56.203125 
Q 43.3125 62.59375 39.796875 65.984375 
Q 36.28125 69.390625 29.6875 69.390625 
Q 23.09375 69.390625 19.453125 66.265625 
Q 15.828125 63.140625 15.1875 56.984375 
L 9.71875 56.984375 
z
" id="DejaVuSerif-33"/>
      </defs>
      <g style="fill:#262626;" transform="translate(44.900346875 264.72865625)scale(0.18 -0.18)">
       <use xlink:href="#DejaVuSerif-2212"/>
       <use x="83.7890625" xlink:href="#DejaVuSerif-33"/>
      </g>
     </g>
    </g>
    <g id="ytick_4">
     <g id="line2d_23">
      <g>
       <use style="fill:#262626;stroke:#262626;" x="84.436284375" xlink:href="#mf171ea7b0a" y="224.517984375"/>
      </g>
     </g>
     <g id="line2d_24">
      <g>
       <use style="fill:#262626;stroke:#262626;" x="551.565" xlink:href="#mf3b3d9fa76" y="224.517984375"/>
      </g>
     </g>
     <g id="text_13">
      <!-- −2 -->
      <g style="fill:#262626;" transform="translate(44.900346875 229.484859375)scale(0.18 -0.18)">
       <use xlink:href="#DejaVuSerif-2212"/>
       <use x="83.7890625" xlink:href="#DejaVuSerif-32"/>
      </g>
     </g>
    </g>
    <g id="ytick_5">
     <g id="line2d_25">
      <g>
       <use style="fill:#262626;stroke:#262626;" x="84.436284375" xlink:href="#mf171ea7b0a" y="189.2741875"/>
      </g>
     </g>
     <g id="line2d_26">
      <g>
       <use style="fill:#262626;stroke:#262626;" x="551.565" xlink:href="#mf3b3d9fa76" y="189.2741875"/>
      </g>
     </g>
     <g id="text_14">
      <!-- −1 -->
      <g style="fill:#262626;" transform="translate(44.900346875 194.2410625)scale(0.18 -0.18)">
       <use xlink:href="#DejaVuSerif-2212"/>
       <use x="83.7890625" xlink:href="#DejaVuSerif-31"/>
      </g>
     </g>
    </g>
    <g id="ytick_6">
     <g id="line2d_27">
      <g>
       <use style="fill:#262626;stroke:#262626;" x="84.436284375" xlink:href="#mf171ea7b0a" y="154.030390625"/>
      </g>
     </g>
     <g id="line2d_28">
      <g>
       <use style="fill:#262626;stroke:#262626;" x="551.565" xlink:href="#mf3b3d9fa76" y="154.030390625"/>
      </g>
     </g>
     <g id="text_15">
      <!-- 0 -->
      <g style="fill:#262626;" transform="translate(59.983784375 158.997265625)scale(0.18 -0.18)">
       <use xlink:href="#DejaVuSerif-30"/>
      </g>
     </g>
    </g>
    <g id="ytick_7">
     <g id="line2d_29">
      <g>
       <use style="fill:#262626;stroke:#262626;" x="84.436284375" xlink:href="#mf171ea7b0a" y="118.78659375"/>
      </g>
     </g>
     <g id="line2d_30">
      <g>
       <use style="fill:#262626;stroke:#262626;" x="551.565" xlink:href="#mf3b3d9fa76" y="118.78659375"/>
      </g>
     </g>
     <g id="text_16">
      <!-- 1 -->
      <g style="fill:#262626;" transform="translate(59.983784375 123.75346875)scale(0.18 -0.18)">
       <use xlink:href="#DejaVuSerif-31"/>
      </g>
     </g>
    </g>
    <g id="ytick_8">
     <g id="line2d_31">
      <g>
       <use style="fill:#262626;stroke:#262626;" x="84.436284375" xlink:href="#mf171ea7b0a" y="83.542796875"/>
      </g>
     </g>
     <g id="line2d_32">
      <g>
       <use style="fill:#262626;stroke:#262626;" x="551.565" xlink:href="#mf3b3d9fa76" y="83.542796875"/>
      </g>
     </g>
     <g id="text_17">
      <!-- 2 -->
      <g style="fill:#262626;" transform="translate(59.983784375 88.509671875)scale(0.18 -0.18)">
       <use xlink:href="#DejaVuSerif-32"/>
      </g>
     </g>
    </g>
    <g id="ytick_9">
     <g id="line2d_33">
      <g>
       <use style="fill:#262626;stroke:#262626;" x="84.436284375" xlink:href="#mf171ea7b0a" y="48.299"/>
      </g>
     </g>
     <g id="line2d_34">
      <g>
       <use style="fill:#262626;stroke:#262626;" x="551.565" xlink:href="#mf3b3d9fa76" y="48.299"/>
      </g>
     </g>
     <g id="text_18">
      <!-- 3 -->
      <g style="fill:#262626;" transform="translate(59.983784375 53.265875)scale(0.18 -0.18)">
       <use xlink:href="#DejaVuSerif-33"/>
      </g>
     </g>
    </g>
    <g id="text_19">
     <!-- $\Delta R /R_0 \: (\times 10^{-2}$) -->
     <defs>
      <path d="M 14.703125 2.875 
Q 14.703125 3.65625 15.1875 4.296875 
L 35.984375 25 
L 15.1875 45.796875 
Q 14.703125 46.296875 14.703125 47.125 
Q 14.703125 47.859375 15.28125 48.484375 
Q 15.875 49.125 16.703125 49.125 
Q 17.390625 49.125 18.21875 48.484375 
L 38.921875 27.78125 
L 59.515625 48.484375 
Q 60.359375 49.125 60.984375 49.125 
Q 61.8125 49.125 62.390625 48.53125 
Q 62.984375 47.953125 62.984375 47.125 
Q 62.984375 46.296875 62.5 45.796875 
L 41.703125 25 
L 62.5 4.296875 
Q 62.984375 3.65625 62.984375 2.875 
Q 62.984375 2.046875 62.390625 1.453125 
Q 61.8125 0.875 60.984375 0.875 
Q 60.25 0.875 59.515625 1.609375 
L 38.921875 22.21875 
L 18.21875 1.609375 
Q 17.484375 0.875 16.703125 0.875 
Q 15.875 0.875 15.28125 1.515625 
Q 14.703125 2.15625 14.703125 2.875 
" id="Cmsy10-a3"/>
      <path d="M 10.203125 23 
Q 9.375 23 8.828125 23.625 
Q 8.296875 24.265625 8.296875 25 
Q 8.296875 25.734375 8.828125 26.359375 
Q 9.375 27 10.203125 27 
L 67.578125 27 
Q 68.359375 27 68.875 26.359375 
Q 69.390625 25.734375 69.390625 25 
Q 69.390625 24.265625 68.875 23.625 
Q 68.359375 23 67.578125 23 
z
" id="Cmsy10-a1"/>
      <path d="M 4.890625 0 
Q 3.90625 0 3.90625 1.3125 
Q 3.953125 1.5625 4.09375 2.171875 
Q 4.25 2.78125 4.515625 3.140625 
Q 4.78125 3.515625 5.171875 3.515625 
Q 11.28125 3.515625 13.71875 4.203125 
Q 14.984375 4.640625 15.578125 6.890625 
L 29.296875 61.8125 
Q 29.5 62.796875 29.5 63.1875 
Q 29.5 64.265625 28.328125 64.40625 
Q 26.421875 64.796875 21.09375 64.796875 
Q 20.125 64.796875 20.125 66.109375 
Q 20.171875 66.359375 20.3125 66.96875 
Q 20.453125 67.578125 20.71875 67.9375 
Q 21 68.3125 21.390625 68.3125 
L 51.703125 68.3125 
Q 55.328125 68.3125 59.234375 67.484375 
Q 63.140625 66.65625 66.40625 64.875 
Q 69.671875 63.09375 71.765625 60.125 
Q 73.875 57.171875 73.875 53.21875 
Q 73.875 48.1875 70.546875 44.234375 
Q 67.234375 40.28125 62.15625 37.625 
Q 57.078125 34.96875 52.296875 33.890625 
Q 56.203125 32.46875 58.6875 29.359375 
Q 61.1875 26.265625 61.1875 22.21875 
Q 61.1875 21.6875 61.15625 21.40625 
Q 61.140625 21.140625 61.078125 20.796875 
L 60.296875 11.921875 
Q 60.203125 9.96875 60.109375 8.59375 
Q 60.015625 7.234375 60.015625 6.390625 
Q 60.015625 3.65625 60.8125 2.015625 
Q 61.625 0.390625 64.015625 0.390625 
Q 67.140625 0.390625 69.5 3.296875 
Q 71.875 6.203125 72.609375 9.625 
Q 73.046875 10.5 73.578125 10.5 
L 74.515625 10.5 
Q 75.484375 10.5 75.484375 9.1875 
Q 74.75 6.296875 73.15625 3.703125 
Q 71.578125 1.125 69.15625 -0.53125 
Q 66.75 -2.203125 63.921875 -2.203125 
Q 58.0625 -2.203125 53.9375 0.40625 
Q 49.8125 3.03125 49.8125 8.59375 
Q 49.8125 10.6875 50.203125 12.3125 
L 52.390625 21.1875 
Q 52.78125 22.40625 52.78125 24.03125 
Q 52.78125 28.171875 49.96875 30.53125 
Q 47.171875 32.90625 42.921875 32.90625 
L 30.609375 32.90625 
L 24.03125 6.5 
Q 23.78125 5.671875 23.78125 5.078125 
Q 23.78125 4.046875 25 3.90625 
Q 26.90625 3.515625 32.171875 3.515625 
Q 33.203125 3.515625 33.203125 2.203125 
Q 32.859375 0.78125 32.65625 0.390625 
Q 32.46875 0 31.5 0 
z
M 31.203125 35.5 
L 42.28125 35.5 
Q 53.171875 35.5 58.6875 41.015625 
Q 61.234375 43.5625 62.71875 47.484375 
Q 64.203125 51.421875 64.203125 55.328125 
Q 64.203125 59.03125 62.03125 61.125 
Q 59.859375 63.234375 56.65625 64.015625 
Q 53.46875 64.796875 49.609375 64.796875 
L 42.921875 64.796875 
Q 40.1875 64.796875 39.296875 64.328125 
Q 38.421875 63.875 37.703125 61.375 
z
" id="Cmmi10-52"/>
      <path d="M 4.984375 0 
L 4.984375 2.6875 
Q 4.984375 2.9375 5.171875 3.21875 
L 20.703125 20.40625 
Q 24.21875 24.21875 26.40625 26.796875 
Q 28.609375 29.390625 30.75 32.765625 
Q 32.90625 36.140625 34.15625 39.625 
Q 35.40625 43.109375 35.40625 47.015625 
Q 35.40625 51.125 33.890625 54.859375 
Q 32.375 58.59375 29.375 60.84375 
Q 26.375 63.09375 22.125 63.09375 
Q 17.78125 63.09375 14.3125 60.46875 
Q 10.84375 57.859375 9.421875 53.71875 
Q 9.8125 53.8125 10.5 53.8125 
Q 12.75 53.8125 14.328125 52.296875 
Q 15.921875 50.78125 15.921875 48.390625 
Q 15.921875 46.09375 14.328125 44.5 
Q 12.75 42.921875 10.5 42.921875 
Q 8.15625 42.921875 6.5625 44.546875 
Q 4.984375 46.1875 4.984375 48.390625 
Q 4.984375 52.15625 6.390625 55.4375 
Q 7.8125 58.734375 10.46875 61.296875 
Q 13.140625 63.875 16.484375 65.234375 
Q 19.828125 66.609375 23.578125 66.609375 
Q 29.296875 66.609375 34.21875 64.1875 
Q 39.15625 61.765625 42.03125 57.34375 
Q 44.921875 52.9375 44.921875 47.015625 
Q 44.921875 42.671875 43.015625 38.765625 
Q 41.109375 34.859375 38.125 31.65625 
Q 35.15625 28.46875 30.515625 24.40625 
Q 25.875 20.359375 24.421875 19 
L 13.09375 8.109375 
L 22.703125 8.109375 
Q 29.78125 8.109375 34.546875 8.21875 
Q 39.3125 8.34375 39.59375 8.59375 
Q 40.765625 9.859375 42 17.828125 
L 44.921875 17.828125 
L 42.09375 0 
z
" id="Cmr10-32"/>
      <path d="M 5.421875 0 
Q 4.59375 0 4.59375 0.78125 
Q 4.640625 0.875 4.65625 0.921875 
Q 4.6875 0.984375 4.6875 1.125 
L 39.109375 70.515625 
Q 39.546875 71.578125 40.921875 71.578125 
L 42.28125 71.578125 
Q 43.65625 71.578125 44.09375 70.515625 
L 78.515625 1.125 
Q 78.5625 1.03125 78.578125 0.953125 
Q 78.609375 0.875 78.609375 0.78125 
Q 78.609375 0 77.78125 0 
z
M 12.015625 8.015625 
L 64.703125 8.015625 
L 38.375 61.078125 
z
" id="Cmr10-a2"/>
      <path d="M 31 -24.8125 
Q 25.4375 -20.40625 21.40625 -14.71875 
Q 17.390625 -9.03125 14.8125 -2.578125 
Q 12.25 3.859375 10.984375 10.890625 
Q 9.71875 17.921875 9.71875 25 
Q 9.71875 32.171875 10.984375 39.203125 
Q 12.25 46.234375 14.859375 52.734375 
Q 17.484375 59.234375 21.53125 64.890625 
Q 25.59375 70.5625 31 74.8125 
Q 31 75 31.5 75 
L 32.421875 75 
Q 32.71875 75 32.953125 74.734375 
Q 33.203125 74.46875 33.203125 74.125 
Q 33.203125 73.6875 33.015625 73.484375 
Q 28.125 68.703125 24.875 63.234375 
Q 21.625 57.765625 19.640625 51.578125 
Q 17.671875 45.40625 16.796875 38.78125 
Q 15.921875 32.171875 15.921875 25 
Q 15.921875 -6.78125 32.90625 -23.296875 
Q 33.203125 -23.578125 33.203125 -24.125 
Q 33.203125 -24.359375 32.9375 -24.671875 
Q 32.671875 -25 32.421875 -25 
L 31.5 -25 
Q 31 -25 31 -24.8125 
" id="Cmr10-28"/>
      <path d="M 25 -2.203125 
Q 12.75 -2.203125 8.328125 7.875 
Q 3.90625 17.96875 3.90625 31.890625 
Q 3.90625 40.578125 5.484375 48.234375 
Q 7.078125 55.90625 11.78125 61.25 
Q 16.5 66.609375 25 66.609375 
Q 31.59375 66.609375 35.78125 63.375 
Q 39.984375 60.15625 42.1875 55.046875 
Q 44.390625 49.953125 45.1875 44.109375 
Q 46 38.28125 46 31.890625 
Q 46 23.296875 44.40625 15.796875 
Q 42.828125 8.296875 38.1875 3.046875 
Q 33.546875 -2.203125 25 -2.203125 
M 25 0.390625 
Q 30.5625 0.390625 33.296875 6.09375 
Q 36.03125 11.8125 36.671875 18.75 
Q 37.3125 25.6875 37.3125 33.5 
Q 37.3125 41.015625 36.671875 47.359375 
Q 36.03125 53.71875 33.3125 58.859375 
Q 30.609375 64.015625 25 64.015625 
Q 19.34375 64.015625 16.609375 58.828125 
Q 13.875 53.65625 13.234375 47.328125 
Q 12.59375 41.015625 12.59375 33.5 
Q 12.59375 27.9375 12.859375 23 
Q 13.140625 18.0625 14.3125 12.8125 
Q 15.484375 7.5625 18.09375 3.96875 
Q 20.703125 0.390625 25 0.390625 
" id="Cmr10-30"/>
      <path d="M 9.28125 0 
L 9.28125 3.515625 
Q 21.78125 3.515625 21.78125 6.6875 
L 21.78125 59.1875 
Q 16.609375 56.6875 8.6875 56.6875 
L 8.6875 60.203125 
Q 20.953125 60.203125 27.203125 66.609375 
L 28.609375 66.609375 
Q 28.953125 66.609375 29.265625 66.328125 
Q 29.59375 66.0625 29.59375 65.71875 
L 29.59375 6.6875 
Q 29.59375 3.515625 42.09375 3.515625 
L 42.09375 0 
z
" id="Cmr10-31"/>
      <path d="M 5.609375 -23 
Q 5.609375 -22.703125 5.71875 -22.609375 
L 40.484375 73.78125 
Q 40.671875 74.359375 41.15625 74.671875 
Q 41.65625 75 42.28125 75 
Q 43.171875 75 43.71875 74.453125 
Q 44.28125 73.921875 44.28125 73 
L 44.28125 72.609375 
L 9.515625 -23.78125 
Q 8.9375 -25 7.625 -25 
Q 6.78125 -25 6.1875 -24.40625 
Q 5.609375 -23.828125 5.609375 -23 
" id="Cmmi10-3d"/>
     </defs>
     <g style="fill:#262626;" transform="translate(34.950346875 262.2371875)rotate(-90.0)scale(0.198 -0.198)">
      <use transform="translate(0.0 0.109375)" xlink:href="#Cmr10-a2"/>
      <use transform="translate(83.30078125 0.109375)" xlink:href="#Cmmi10-52"/>
      <use transform="translate(159.1796875 0.109375)" xlink:href="#Cmmi10-3d"/>
      <use transform="translate(209.1796875 0.109375)" xlink:href="#Cmmi10-52"/>
      <use transform="translate(285.05859375 -16.896874999999994)scale(0.7)" xlink:href="#Cmr10-30"/>
      <use transform="translate(345.945291015625 0.109375)" xlink:href="#Cmr10-28"/>
      <use transform="translate(402.322244140625 0.109375)" xlink:href="#Cmsy10-a3"/>
      <use transform="translate(497.566384765625 0.109375)" xlink:href="#Cmr10-31"/>
      <use transform="translate(547.566384765625 0.109375)" xlink:href="#Cmr10-30"/>
      <use transform="translate(602.030525390625 38.3734375)scale(0.7)" xlink:href="#Cmsy10-a1"/>
      <use transform="translate(656.410408203125 38.3734375)scale(0.7)" xlink:href="#Cmr10-32"/>
      <use transform="translate(697.787751953125 0.109375)" xlink:href="#DejaVuSerif-29"/>
     </g>
    </g>
   </g>
   <g id="line2d_35">
    <path clip-path="url(#p44ef0a1480)" d="M 120.133816 137.634252 
L 120.775339 145.132236 
L 123.456213 162.954189 
L 126.778611 134.760642 
L 130.275403 148.402344 
L 134.064039 180.723668 
L 137.79484 193.854725 
L 141.700037 144.180518 
L 145.488673 159.770137 
L 149.451704 129.637913 
L 153.531295 179.202596 
L 157.378656 135.222125 
L 161.633531 160.220778 
L 165.771847 181.746661 
L 169.851437 110.105011 
L 174.047588 169.273338 
L 178.069344 146.49438 
L 182.149824 156.727468 
L 186.404699 136.037111 
L 190.60085 121.867526 
L 194.739166 151.767537 
L 198.994041 151.735057 
L 203.423311 156.43527 
L 207.678186 143.089914 
L 209.019068 130.271167 
L 211.933061 138.41505 
L 216.013542 150.765905 
L 220.559372 150.346477 
L 224.756412 126.790188 
L 229.127847 167.096502 
L 233.382722 143.63517 
L 237.754157 191.840688 
L 242.008143 107.953861 
L 246.379578 120.918597 
L 250.926297 162.794737 
L 255.181173 183.937496 
L 259.669167 157.046388 
L 263.981878 159.425583 
L 268.178918 112.11003 
L 272.900032 152.122349 
L 277.096183 155.822022 
L 281.584177 151.482519 
M 290.443607 106.463354 
L 294.872877 166.216549 
L 299.477432 132.007284 
L 303.907591 152.81351 
L 308.336861 122.059573 
L 312.883581 178.753642 
L 317.196291 300.979388 
L 321.85957 76.18643 
L 326.172281 196.781456 
L 330.893395 195.299557 
L 335.497949 205.164162 
L 339.928109 185.794574 
L 344.415214 228.222606 
L 349.136328 192.672443 
L 353.449928 114.737192 
L 358.228877 198.532646 
L 362.659037 192.872539 
L 367.321427 182.20973 
M 376.413976 210.280701 
L 381.13509 194.131551 
L 385.68181 158.3594 
L 390.402924 178.570864 
L 395.065313 182.520764 
L 399.845152 198.949191 
L 404.507542 203.455771 
L 408.995181 188.971195 
L 413.774664 158.237206 
L 418.37904 208.499679 
L 423.041963 147.297906 
L 427.763078 201.927092 
L 432.484103 166.850533 
L 437.147026 167.068057 
L 441.868051 166.894322 
L 446.647357 155.006455 
L 451.42684 173.453149 
L 456.264514 200.138512 
L 461.218658 183.655772 
L 465.998141 166.178459 
L 470.602607 189.627303 
L 475.32381 197.776395 
L 480.219675 213.99812 
L 484.999158 175.156815 
L 489.953392 208.857198 
L 494.732786 190.546425 
L 499.512091 195.369744 
L 504.407956 208.951513 
L 509.18735 211.104883 
L 514.200041 201.044559 
L 519.270746 164.82521 
L 523.99186 203.250599 
L 528.887903 195.898869 
L 533.667297 187.565575 
" style="fill:none;stroke:#c44e52;stroke-linecap:round;stroke-width:1.75;"/>
    <defs>
     <path d="M 0 1.75 
C 0.464105 1.75 0.909265 1.565609 1.237437 1.237437 
C 1.565609 0.909265 1.75 0.464105 1.75 0 
C 1.75 -0.464105 1.565609 -0.909265 1.237437 -1.237437 
C 0.909265 -1.565609 0.464105 -1.75 0 -1.75 
C -0.464105 -1.75 -0.909265 -1.565609 -1.237437 -1.237437 
C -1.565609 -0.909265 -1.75 -0.464105 -1.75 0 
C -1.75 0.464105 -1.565609 0.909265 -1.237437 1.237437 
C -0.909265 1.565609 -0.464105 1.75 0 1.75 
z
" id="mc06078362c"/>
    </defs>
    <g clip-path="url(#p44ef0a1480)">
     <use style="fill:#c44e52;" x="120.133815939" xlink:href="#mc06078362c" y="137.634251553"/>
     <use style="fill:#c44e52;" x="120.775339375" xlink:href="#mc06078362c" y="145.13223556"/>
     <use style="fill:#c44e52;" x="123.456213318" xlink:href="#mc06078362c" y="162.954189483"/>
     <use style="fill:#c44e52;" x="126.778610697" xlink:href="#mc06078362c" y="134.7606418"/>
     <use style="fill:#c44e52;" x="130.275402797" xlink:href="#mc06078362c" y="148.402343629"/>
     <use style="fill:#c44e52;" x="134.064039123" xlink:href="#mc06078362c" y="180.723668238"/>
     <use style="fill:#c44e52;" x="137.794840465" xlink:href="#mc06078362c" y="193.854725155"/>
     <use style="fill:#c44e52;" x="141.700036528" xlink:href="#mc06078362c" y="144.180517612"/>
     <use style="fill:#c44e52;" x="145.488672854" xlink:href="#mc06078362c" y="159.770137301"/>
     <use style="fill:#c44e52;" x="149.4517039" xlink:href="#mc06078362c" y="129.637913191"/>
     <use style="fill:#c44e52;" x="153.531294683" xlink:href="#mc06078362c" y="179.202595641"/>
     <use style="fill:#c44e52;" x="157.378655762" xlink:href="#mc06078362c" y="135.222124993"/>
     <use style="fill:#c44e52;" x="161.633531035" xlink:href="#mc06078362c" y="160.220777873"/>
     <use style="fill:#c44e52;" x="165.771846571" xlink:href="#mc06078362c" y="181.746661251"/>
     <use style="fill:#c44e52;" x="169.851437354" xlink:href="#mc06078362c" y="110.105011488"/>
     <use style="fill:#c44e52;" x="174.047587874" xlink:href="#mc06078362c" y="169.273338049"/>
     <use style="fill:#c44e52;" x="178.069343673" xlink:href="#mc06078362c" y="146.494379626"/>
     <use style="fill:#c44e52;" x="182.149824225" xlink:href="#mc06078362c" y="156.727468058"/>
     <use style="fill:#c44e52;" x="186.404699498" xlink:href="#mc06078362c" y="136.037111069"/>
     <use style="fill:#c44e52;" x="190.600850017" xlink:href="#mc06078362c" y="121.867526033"/>
     <use style="fill:#c44e52;" x="194.739165553" xlink:href="#mc06078362c" y="151.767536791"/>
     <use style="fill:#c44e52;" x="198.994040826" xlink:href="#mc06078362c" y="151.735056946"/>
     <use style="fill:#c44e52;" x="203.423310819" xlink:href="#mc06078362c" y="156.435270359"/>
     <use style="fill:#c44e52;" x="207.678186092" xlink:href="#mc06078362c" y="143.089914075"/>
     <use style="fill:#c44e52;" x="209.019067948" xlink:href="#mc06078362c" y="130.271166952"/>
     <use style="fill:#c44e52;" x="211.933061364" xlink:href="#mc06078362c" y="138.415049522"/>
     <use style="fill:#c44e52;" x="216.013541916" xlink:href="#mc06078362c" y="150.76590524"/>
     <use style="fill:#c44e52;" x="220.559371646" xlink:href="#mc06078362c" y="150.346476731"/>
     <use style="fill:#c44e52;" x="224.756411935" xlink:href="#mc06078362c" y="126.790187543"/>
     <use style="fill:#c44e52;" x="229.127846944" xlink:href="#mc06078362c" y="167.096502464"/>
     <use style="fill:#c44e52;" x="233.382722217" xlink:href="#mc06078362c" y="143.635170022"/>
     <use style="fill:#c44e52;" x="237.754157226" xlink:href="#mc06078362c" y="191.840687779"/>
     <use style="fill:#c44e52;" x="242.00814273" xlink:href="#mc06078362c" y="107.95386111"/>
     <use style="fill:#c44e52;" x="246.379577739" xlink:href="#mc06078362c" y="120.918597432"/>
     <use style="fill:#c44e52;" x="250.926297238" xlink:href="#mc06078362c" y="162.794736606"/>
     <use style="fill:#c44e52;" x="255.18117251" xlink:href="#mc06078362c" y="183.93749626"/>
     <use style="fill:#c44e52;" x="259.669167256" xlink:href="#mc06078362c" y="157.046388439"/>
     <use style="fill:#c44e52;" x="263.981877513" xlink:href="#mc06078362c" y="159.425582657"/>
     <use style="fill:#c44e52;" x="268.178917801" xlink:href="#mc06078362c" y="112.110030372"/>
     <use style="fill:#c44e52;" x="272.900032021" xlink:href="#mc06078362c" y="152.122348822"/>
     <use style="fill:#c44e52;" x="277.09618254" xlink:href="#mc06078362c" y="155.822021938"/>
     <use style="fill:#c44e52;" x="281.584177286" xlink:href="#mc06078362c" y="151.482519208"/>
     <use style="fill:#c44e52;" x="290.443607042" xlink:href="#mc06078362c" y="106.463353912"/>
     <use style="fill:#c44e52;" x="294.872877035" xlink:href="#mc06078362c" y="166.216548834"/>
     <use style="fill:#c44e52;" x="299.477431517" xlink:href="#mc06078362c" y="132.007283954"/>
     <use style="fill:#c44e52;" x="303.907591279" xlink:href="#mc06078362c" y="152.813509727"/>
     <use style="fill:#c44e52;" x="308.336861272" xlink:href="#mc06078362c" y="122.059572565"/>
     <use style="fill:#c44e52;" x="312.883580771" xlink:href="#mc06078362c" y="178.753642001"/>
     <use style="fill:#c44e52;" x="317.196291028" xlink:href="#mc06078362c" y="300.979388136"/>
     <use style="fill:#c44e52;" x="321.859570263" xlink:href="#mc06078362c" y="76.1864302511"/>
     <use style="fill:#c44e52;" x="326.172280519" xlink:href="#mc06078362c" y="196.781455594"/>
     <use style="fill:#c44e52;" x="330.893394739" xlink:href="#mc06078362c" y="195.299556661"/>
     <use style="fill:#c44e52;" x="335.497949221" xlink:href="#mc06078362c" y="205.164162313"/>
     <use style="fill:#c44e52;" x="339.928108983" xlink:href="#mc06078362c" y="185.794574095"/>
     <use style="fill:#c44e52;" x="344.41521396" xlink:href="#mc06078362c" y="228.222606467"/>
     <use style="fill:#c44e52;" x="349.13632818" xlink:href="#mc06078362c" y="192.67244268"/>
     <use style="fill:#c44e52;" x="353.449928205" xlink:href="#mc06078362c" y="114.737191637"/>
     <use style="fill:#c44e52;" x="358.228877408" xlink:href="#mc06078362c" y="198.532645506"/>
     <use style="fill:#c44e52;" x="362.65903717" xlink:href="#mc06078362c" y="192.872539389"/>
     <use style="fill:#c44e52;" x="367.321426637" xlink:href="#mc06078362c" y="182.209730079"/>
     <use style="fill:#c44e52;" x="376.413975865" xlink:href="#mc06078362c" y="210.280701452"/>
     <use style="fill:#c44e52;" x="381.135090084" xlink:href="#mc06078362c" y="194.131551375"/>
     <use style="fill:#c44e52;" x="385.681809583" xlink:href="#mc06078362c" y="158.359400453"/>
     <use style="fill:#c44e52;" x="390.402923802" xlink:href="#mc06078362c" y="178.570864159"/>
     <use style="fill:#c44e52;" x="395.065313269" xlink:href="#mc06078362c" y="182.520764349"/>
     <use style="fill:#c44e52;" x="399.845152241" xlink:href="#mc06078362c" y="198.949190761"/>
     <use style="fill:#c44e52;" x="404.507541707" xlink:href="#mc06078362c" y="203.455771059"/>
     <use style="fill:#c44e52;" x="408.995180546" xlink:href="#mc06078362c" y="188.971194786"/>
     <use style="fill:#c44e52;" x="413.77466361" xlink:href="#mc06078362c" y="158.237205988"/>
     <use style="fill:#c44e52;" x="418.379040139" xlink:href="#mc06078362c" y="208.49967932"/>
     <use style="fill:#c44e52;" x="423.041963467" xlink:href="#mc06078362c" y="147.297906205"/>
     <use style="fill:#c44e52;" x="427.763077686" xlink:href="#mc06078362c" y="201.927091672"/>
     <use style="fill:#c44e52;" x="432.484102928" xlink:href="#mc06078362c" y="166.850533"/>
     <use style="fill:#c44e52;" x="437.147026256" xlink:href="#mc06078362c" y="167.068057171"/>
     <use style="fill:#c44e52;" x="441.868051499" xlink:href="#mc06078362c" y="166.894321952"/>
     <use style="fill:#c44e52;" x="446.647356609" xlink:href="#mc06078362c" y="155.006454795"/>
     <use style="fill:#c44e52;" x="451.426839674" xlink:href="#mc06078362c" y="173.453148801"/>
     <use style="fill:#c44e52;" x="456.26451363" xlink:href="#mc06078362c" y="200.138512337"/>
     <use style="fill:#c44e52;" x="461.218658345" xlink:href="#mc06078362c" y="183.65577226"/>
     <use style="fill:#c44e52;" x="465.99814141" xlink:href="#mc06078362c" y="166.178459158"/>
     <use style="fill:#c44e52;" x="470.602606915" xlink:href="#mc06078362c" y="189.627302658"/>
     <use style="fill:#c44e52;" x="475.323810112" xlink:href="#mc06078362c" y="197.776395097"/>
     <use style="fill:#c44e52;" x="480.219674959" xlink:href="#mc06078362c" y="213.998120154"/>
     <use style="fill:#c44e52;" x="484.999158023" xlink:href="#mc06078362c" y="175.156814962"/>
     <use style="fill:#c44e52;" x="489.953391716" xlink:href="#mc06078362c" y="208.857198154"/>
     <use style="fill:#c44e52;" x="494.732785804" xlink:href="#mc06078362c" y="190.546424904"/>
     <use style="fill:#c44e52;" x="499.512090914" xlink:href="#mc06078362c" y="195.369744207"/>
     <use style="fill:#c44e52;" x="504.407955762" xlink:href="#mc06078362c" y="208.951513333"/>
     <use style="fill:#c44e52;" x="509.187349849" xlink:href="#mc06078362c" y="211.104882717"/>
     <use style="fill:#c44e52;" x="514.200041364" xlink:href="#mc06078362c" y="201.044558677"/>
     <use style="fill:#c44e52;" x="519.270745816" xlink:href="#mc06078362c" y="164.825210455"/>
     <use style="fill:#c44e52;" x="523.991860035" xlink:href="#mc06078362c" y="203.250598538"/>
     <use style="fill:#c44e52;" x="528.887902837" xlink:href="#mc06078362c" y="195.898868953"/>
     <use style="fill:#c44e52;" x="533.667296924" xlink:href="#mc06078362c" y="187.565574843"/>
    </g>
   </g>
   <g id="patch_3">
    <path d="M 84.436284 330.249375 
L 84.436284 48.299 
" style="fill:none;stroke:#262626;stroke-linecap:square;stroke-linejoin:miter;stroke-width:1.25;"/>
   </g>
   <g id="patch_4">
    <path d="M 84.436284 48.299 
L 551.565 48.299 
" style="fill:none;stroke:#262626;stroke-linecap:square;stroke-linejoin:miter;stroke-width:1.25;"/>
   </g>
   <g id="patch_5">
    <path d="M 551.565 330.249375 
L 551.565 48.299 
" style="fill:none;stroke:#262626;stroke-linecap:square;stroke-linejoin:miter;stroke-width:1.25;"/>
   </g>
   <g id="patch_6">
    <path d="M 84.436284 330.249375 
L 551.565 330.249375 
" style="fill:none;stroke:#262626;stroke-linecap:square;stroke-linejoin:miter;stroke-width:1.25;"/>
   </g>
   <g id="text_20">
    <!-- Si [010], 35.6 $\mathrm{TW/cm^2}$ -->
    <defs>
     <path d="M 32.71875 3.421875 
Q 39.59375 3.421875 43.296875 8.46875 
Q 47.015625 13.53125 47.015625 23 
Q 47.015625 32.46875 43.296875 37.515625 
Q 39.59375 42.578125 32.71875 42.578125 
Q 25.734375 42.578125 22.0625 37.6875 
Q 18.40625 32.8125 18.40625 23.578125 
Q 18.40625 13.875 22.109375 8.640625 
Q 25.828125 3.421875 32.71875 3.421875 
M 16.796875 40.140625 
Q 20.125 43.796875 24.3125 45.59375 
Q 28.515625 47.40625 33.796875 47.40625 
Q 44.671875 47.40625 51 40.859375 
Q 57.328125 34.328125 57.328125 23 
Q 57.328125 11.921875 50.515625 5.25 
Q 43.703125 -1.421875 32.328125 -1.421875 
Q 19.96875 -1.421875 13.328125 7.78125 
Q 6.6875 17 6.6875 34.078125 
Q 6.6875 53.21875 14.546875 63.71875 
Q 22.40625 74.21875 36.71875 74.21875 
Q 40.578125 74.21875 44.828125 73.484375 
Q 49.078125 72.75 53.515625 71.296875 
L 53.515625 59.28125 
L 48 59.28125 
Q 47.40625 64.203125 44.234375 66.796875 
Q 41.0625 69.390625 35.6875 69.390625 
Q 26.21875 69.390625 21.578125 62.203125 
Q 16.9375 55.03125 16.796875 40.140625 
" id="DejaVuSerif-36"/>
     <path d="M 9.71875 68.015625 
Q 9.71875 70.265625 11.34375 71.921875 
Q 12.984375 73.578125 15.28125 73.578125 
Q 17.53125 73.578125 19.15625 71.921875 
Q 20.796875 70.265625 20.796875 68.015625 
Q 20.796875 65.71875 19.1875 64.109375 
Q 17.578125 62.5 15.28125 62.5 
Q 12.984375 62.5 11.34375 64.109375 
Q 9.71875 65.71875 9.71875 68.015625 
M 21.1875 5.171875 
L 29.6875 5.171875 
L 29.6875 0 
L 3.609375 0 
L 3.609375 5.171875 
L 12.203125 5.171875 
L 12.203125 46.6875 
L 3.609375 46.6875 
L 3.609375 51.90625 
L 21.1875 51.90625 
z
" id="DejaVuSerif-69"/>
     <path d="M 8.59375 75.984375 
L 31.296875 75.984375 
L 31.296875 70.796875 
L 17.921875 70.796875 
L 17.921875 -8.015625 
L 31.296875 -8.015625 
L 31.296875 -13.1875 
L 8.59375 -13.1875 
z
" id="DejaVuSerif-5b"/>
     <path d="M 16.890625 0 
L 16.890625 3.515625 
Q 21.921875 3.515625 26.65625 4.078125 
Q 31.390625 4.640625 31.390625 6.6875 
L 31.390625 61.625 
Q 31.390625 63.765625 30.1875 64.28125 
Q 29 64.796875 26.3125 64.796875 
L 22.125 64.796875 
Q 13.875 64.796875 10.40625 61.1875 
Q 8.59375 59.375 7.8125 55.390625 
Q 7.03125 51.421875 6.5 45.40625 
L 3.609375 45.40625 
L 5.515625 68.3125 
L 66.609375 68.3125 
L 68.5 45.40625 
L 65.578125 45.40625 
Q 64.984375 51.859375 64.28125 55.640625 
Q 63.578125 59.421875 61.71875 61.1875 
Q 58.203125 64.796875 50 64.796875 
L 45.796875 64.796875 
Q 44 64.796875 43 64.640625 
Q 42 64.5 41.359375 63.796875 
Q 40.71875 63.09375 40.71875 61.625 
L 40.71875 6.6875 
Q 40.71875 4.640625 45.453125 4.078125 
Q 50.203125 3.515625 55.171875 3.515625 
L 55.171875 0 
z
" id="Cmr10-54"/>
     <path d="M 3.609375 -9.71875 
Q 8.203125 -6.34375 10.34375 -1.78125 
Q 12.5 2.78125 12.5 9.28125 
L 12.5 11.078125 
L 22.125 11.078125 
Q 21.734375 2.734375 18.1875 -3.25 
Q 14.65625 -9.234375 7.515625 -13.625 
z
" id="DejaVuSerif-2c"/>
     <path d="M 2.984375 0 
L 2.984375 3.515625 
Q 6.390625 3.515625 8.59375 4.046875 
Q 10.796875 4.59375 10.796875 6.6875 
L 10.796875 33.984375 
Q 10.796875 36.671875 9.984375 37.859375 
Q 9.1875 39.0625 7.671875 39.328125 
Q 6.15625 39.59375 2.984375 39.59375 
L 2.984375 43.109375 
L 17.484375 44.1875 
L 17.484375 34.421875 
Q 19.484375 38.71875 23.40625 41.453125 
Q 27.34375 44.1875 31.984375 44.1875 
Q 43.5 44.1875 45.515625 34.8125 
Q 47.515625 39.015625 51.359375 41.59375 
Q 55.21875 44.1875 59.8125 44.1875 
Q 64.359375 44.1875 67.453125 42.71875 
Q 70.5625 41.265625 72.125 38.25 
Q 73.6875 35.25 73.6875 30.71875 
L 73.6875 6.6875 
Q 73.6875 4.59375 75.90625 4.046875 
Q 78.125 3.515625 81.5 3.515625 
L 81.5 0 
L 58.59375 0 
L 58.59375 3.515625 
Q 62.015625 3.515625 64.203125 4.046875 
Q 66.40625 4.59375 66.40625 6.6875 
L 66.40625 30.421875 
Q 66.40625 35.453125 64.984375 38.53125 
Q 63.578125 41.609375 59.1875 41.609375 
Q 53.421875 41.609375 49.65625 36.96875 
Q 45.90625 32.328125 45.90625 26.421875 
L 45.90625 6.6875 
Q 45.90625 4.59375 48.09375 4.046875 
Q 50.296875 3.515625 53.71875 3.515625 
L 53.71875 0 
L 30.8125 0 
L 30.8125 3.515625 
Q 34.234375 3.515625 36.421875 4.046875 
Q 38.625 4.59375 38.625 6.6875 
L 38.625 30.421875 
Q 38.625 35.296875 37.203125 38.453125 
Q 35.796875 41.609375 31.390625 41.609375 
Q 25.59375 41.609375 21.84375 36.96875 
Q 18.109375 32.328125 18.109375 26.421875 
L 18.109375 6.6875 
Q 18.109375 4.59375 20.3125 4.046875 
Q 22.515625 3.515625 25.875 3.515625 
L 25.875 0 
z
" id="Cmr10-6d"/>
     <path d="M 24.90625 -1.125 
Q 18.84375 -1.125 13.90625 2.015625 
Q 8.984375 5.171875 6.15625 10.421875 
Q 3.328125 15.671875 3.328125 21.578125 
Q 3.328125 27.484375 6.125 32.90625 
Q 8.9375 38.328125 13.890625 41.578125 
Q 18.84375 44.828125 24.90625 44.828125 
Q 30.765625 44.828125 35.5625 42.53125 
Q 40.375 40.234375 40.375 35.015625 
Q 40.375 33.0625 38.984375 31.609375 
Q 37.59375 30.171875 35.59375 30.171875 
Q 33.59375 30.171875 32.203125 31.609375 
Q 30.8125 33.0625 30.8125 35.015625 
Q 30.8125 36.765625 31.9375 38.0625 
Q 33.0625 39.359375 34.71875 39.703125 
Q 31.25 41.890625 25 41.890625 
Q 20.21875 41.890625 17.28125 38.71875 
Q 14.359375 35.546875 13.1875 30.859375 
Q 12.015625 26.171875 12.015625 21.578125 
Q 12.015625 16.75 13.453125 12.234375 
Q 14.890625 7.71875 18.09375 4.765625 
Q 21.296875 1.8125 26.125 1.8125 
Q 30.859375 1.8125 34.171875 4.71875 
Q 37.5 7.625 38.71875 12.3125 
Q 38.71875 12.890625 39.5 12.890625 
L 40.71875 12.890625 
Q 41.015625 12.890625 41.25 12.625 
Q 41.5 12.359375 41.5 12.015625 
L 41.5 11.71875 
Q 39.984375 5.8125 35.484375 2.34375 
Q 31 -1.125 24.90625 -1.125 
" id="Cmr10-63"/>
     <path d="M 9.421875 5.078125 
Q 9.421875 7.8125 11.28125 9.71875 
Q 13.140625 11.625 15.921875 11.625 
Q 18.609375 11.625 20.5 9.71875 
Q 22.40625 7.8125 22.40625 5.078125 
Q 22.40625 2.390625 20.5 0.484375 
Q 18.609375 -1.421875 15.921875 -1.421875 
Q 13.140625 -1.421875 11.28125 0.453125 
Q 9.421875 2.34375 9.421875 5.078125 
" id="DejaVuSerif-2e"/>
     <path d="M 31.109375 -1.125 
L 10.6875 61.625 
Q 9.90625 63.71875 7.65625 64.25 
Q 5.421875 64.796875 1.8125 64.796875 
L 1.8125 68.3125 
L 28.609375 68.3125 
L 28.609375 64.796875 
Q 20.21875 64.796875 20.21875 62.109375 
L 20.21875 61.625 
L 36.1875 12.40625 
L 49.8125 54.5 
L 47.515625 61.625 
Q 46.734375 63.71875 44.484375 64.25 
Q 42.234375 64.796875 38.625 64.796875 
L 38.625 68.3125 
L 65.375 68.3125 
L 65.375 64.796875 
Q 56.890625 64.796875 56.890625 62.109375 
Q 56.890625 61.96875 56.984375 61.671875 
Q 57.078125 61.375 57.078125 61.28125 
L 73 12.40625 
L 87.984375 58.890625 
Q 88.09375 59.1875 88.09375 59.8125 
Q 88.09375 62.453125 85.296875 63.625 
Q 82.515625 64.796875 79.5 64.796875 
L 79.5 68.3125 
L 100.875 68.3125 
L 100.875 64.796875 
Q 92.96875 64.796875 91.109375 58.890625 
L 71.578125 -1.125 
Q 71.234375 -2.203125 70.125 -2.203125 
L 69.390625 -2.203125 
Q 68.265625 -2.203125 67.921875 -1.125 
L 51.421875 49.8125 
L 34.8125 -1.125 
Q 34.46875 -2.203125 33.296875 -2.203125 
L 32.625 -2.203125 
Q 31.453125 -2.203125 31.109375 -1.125 
" id="Cmr10-57"/>
     <path d="M 30.421875 75.984375 
L 30.421875 -13.1875 
L 7.71875 -13.1875 
L 7.71875 -8.015625 
L 21.09375 -8.015625 
L 21.09375 70.796875 
L 7.71875 70.796875 
L 7.71875 75.984375 
z
" id="DejaVuSerif-5d"/>
     <path d="M 9.28125 3.515625 
L 9.28125 20.125 
L 14.890625 20.0625 
Q 15.140625 11.765625 19.703125 7.78125 
Q 24.265625 3.8125 33.59375 3.8125 
Q 42.28125 3.8125 46.84375 7.25 
Q 51.421875 10.6875 51.421875 17.28125 
Q 51.421875 22.5625 48.65625 25.390625 
Q 45.90625 28.21875 37.015625 30.90625 
L 27.390625 33.796875 
Q 16.9375 36.96875 12.671875 41.703125 
Q 8.40625 46.4375 8.40625 54.6875 
Q 8.40625 63.96875 14.984375 69.09375 
Q 21.578125 74.21875 33.5 74.21875 
Q 38.578125 74.21875 44.625 73.109375 
Q 50.6875 72.015625 57.515625 69.921875 
L 57.515625 54.390625 
L 52 54.390625 
Q 51.171875 62.109375 46.84375 65.546875 
Q 42.53125 69 33.6875 69 
Q 25.984375 69 21.953125 65.84375 
Q 17.921875 62.703125 17.921875 56.6875 
Q 17.921875 51.46875 20.9375 48.484375 
Q 23.96875 45.515625 33.796875 42.578125 
L 42.828125 39.890625 
Q 52.734375 36.921875 56.953125 32.296875 
Q 61.1875 27.6875 61.1875 19.921875 
Q 61.1875 9.328125 54.390625 3.953125 
Q 47.609375 -1.421875 34.1875 -1.421875 
Q 28.171875 -1.421875 21.9375 -0.1875 
Q 15.71875 1.03125 9.28125 3.515625 
" id="DejaVuSerif-53"/>
    </defs>
    <g style="fill:#262626;" transform="translate(217.380642188 32.020985)scale(0.18 -0.18)">
     <use transform="translate(0.0 0.22343750000000284)" xlink:href="#DejaVuSerif-53"/>
     <use transform="translate(68.505859375 0.22343750000000284)" xlink:href="#DejaVuSerif-69"/>
     <use transform="translate(100.48828125 0.22343750000000284)" xlink:href="#DejaVuSerif-20"/>
     <use transform="translate(132.275390625 0.22343750000000284)" xlink:href="#DejaVuSerif-5b"/>
     <use transform="translate(171.2890625 0.22343750000000284)" xlink:href="#DejaVuSerif-30"/>
     <use transform="translate(234.912109375 0.22343750000000284)" xlink:href="#DejaVuSerif-31"/>
     <use transform="translate(298.53515625 0.22343750000000284)" xlink:href="#DejaVuSerif-30"/>
     <use transform="translate(362.158203125 0.22343750000000284)" xlink:href="#DejaVuSerif-5d"/>
     <use transform="translate(401.171875 0.22343750000000284)" xlink:href="#DejaVuSerif-2c"/>
     <use transform="translate(432.958984375 0.22343750000000284)" xlink:href="#DejaVuSerif-20"/>
     <use transform="translate(464.74609375 0.22343750000000284)" xlink:href="#DejaVuSerif-33"/>
     <use transform="translate(528.369140625 0.22343750000000284)" xlink:href="#DejaVuSerif-35"/>
     <use transform="translate(591.9921875 0.22343750000000284)" xlink:href="#DejaVuSerif-2e"/>
     <use transform="translate(623.779296875 0.22343750000000284)" xlink:href="#DejaVuSerif-36"/>
     <use transform="translate(687.40234375 0.22343750000000284)" xlink:href="#DejaVuSerif-20"/>
     <use transform="translate(719.189453125 0.22343750000000284)" xlink:href="#Cmr10-54"/>
     <use transform="translate(791.40625 0.22343750000000284)" xlink:href="#Cmr10-57"/>
     <use transform="translate(894.091796875 0.22343750000000284)" xlink:href="#Cmmi10-3d"/>
     <use transform="translate(944.091796875 0.22343750000000284)" xlink:href="#Cmr10-63"/>
     <use transform="translate(988.4765625 0.22343750000000284)" xlink:href="#Cmr10-6d"/>
     <use transform="translate(1076.34484375 39.3734375)scale(0.7)" xlink:href="#Cmr10-32"/>
    </g>
   </g>
  </g>
 </g>
 <defs>
  <clipPath id="p44ef0a1480">
   <rect height="281.950375" width="467.128715625" x="84.436284375" y="48.299"/>
  </clipPath>
 </defs>
</svg>
